<svg xmlns="http://www.w3.org/2000/svg" xmlns:xlink="http://www.w3.org/1999/xlink" width="1024" zoomAndPan="magnify" viewBox="0 0 768 767.999994" height="1024" preserveAspectRatio="xMidYMid meet" version="1.0"><defs><g/></defs><rect x="-76.8" width="921.6" fill="#ffffff" y="-76.799999" height="921.599993" fill-opacity="1"/><rect x="-76.8" width="921.6" fill="#3b3b3b" y="-76.799999" height="921.599993" fill-opacity="1"/><g fill="#ffffff" fill-opacity="1"><g transform="translate(219.886706, 426.776015)"><g><path d="M 38.96875 -67.984375 L 38.96875 0 L 13.984375 0 L 13.984375 -127.578125 L 20.625 -127.578125 L 83.71875 -54.171875 L 83.71875 -124.78125 L 108.875 -124.78125 L 108.875 2.625 L 102.234375 2.625 Z M 38.96875 -67.984375 "/></g></g></g><g fill="#7d2ae8" fill-opacity="1"><g transform="translate(342.921856, 426.776015)"><g><path d="M 47.71875 -74.09375 C 51.09375 -78.875 52.984375 -82.488281 53.390625 -84.9375 C 53.796875 -87.382812 54 -88.609375 54 -88.609375 C 54 -92.097656 52.773438 -95.035156 50.328125 -97.421875 C 47.878906 -99.816406 44.789062 -101.070312 41.0625 -101.1875 C 37.457031 -101.414062 33.671875 -100.945312 29.703125 -99.78125 C 25.742188 -98.625 22.191406 -97.195312 19.046875 -95.5 C 15.898438 -93.8125 13.628906 -92.390625 12.234375 -91.234375 L 6.109375 -115.34375 C 10.890625 -118.84375 16.742188 -121.664062 23.671875 -123.8125 C 30.609375 -125.96875 37.109375 -126.929688 43.171875 -126.703125 C 52.367188 -126.234375 59.96875 -124.078125 65.96875 -120.234375 C 71.96875 -116.390625 76.25 -111.410156 78.8125 -105.296875 C 81.382812 -99.179688 82.054688 -92.507812 80.828125 -85.28125 C 79.609375 -78.0625 76.375 -70.78125 71.125 -63.4375 L 46.484375 -25.34375 L 83.53125 -25.34375 L 83.53125 0 L 1.046875 0 Z M 47.71875 -74.09375 "/></g></g></g><g fill="#ffffff" fill-opacity="1"><g transform="translate(433.976543, 426.776015)"><g><path d="M 2.796875 0 L 55.40625 -129.5 L 58.015625 -129.5 L 110.625 0 L 82.484375 0 L 77.421875 -13.453125 L 36 -13.453125 L 31.109375 0 Z M 45.09375 -36.875 L 68.15625 -36.875 L 56.796875 -69.375 Z M 45.09375 -36.875 "/></g></g></g></svg>